# xmcd
#
# Track frame offsets:
#	150
#	12411
#	24436
#	34237
#	44570
#	57027
#	68440
#	77681
#	87615
#	100175
#	107319
#	119996
#	133242
#	143324
#	154944
#	167011
#	177882
#	192243
#	201482
#	213933
#	225891
#	237205
#	249488
#	261499
#	276440
#	290449
#	304082
#	318956
#
# Disc length: 4457 seconds
#
# Revision: 1
# Processed by: cddbd v1.5.1PL0 Copyright (c) Steve Scherf et al.
# Submitted via: audiograbber 1.82.02
#
DISCID=8d11671c
DTITLE=Various Artist - The Shing-A-Ling Ain't The Thing
DYEAR=1900
DGENRE=Soul
TTITLE0=The Larks - The Roman
TTITLE1=Leroy Harris - Crow Baby Crow
TTITLE2=Joe Simon - The Whoo Pee
TTITLE3=The Rivingtons - The Willie
TTITLE4=Marsha Gee (Linda Jones) - The Peanut Duck
TTITLE5=Gate Wesley and Band - The Batman
TTITLE6=Eldridge Holmes - Emperor Jones
TTITLE7=Johnny Larand and the Internes - The Eel
TTITLE8=The Eddie Buster Band - Churn The Butter
TTITLE9=Jarvis Jackson - The Long John
TTITLE10=Eddie Kirk - The Grunt
TTITLE11=Sonny Harris and the Soul Reflections - The Vibration
TTITLE12=Assumarks Derfla - The Crawfish
TTITLE13=Joe Johnson - Rattlesnake Baby Rattlesnake
TTITLE14=The Ideals - Go-Go Gorilla
TTITLE15=Jimmy Mayes and the Mill Street Depot - Monkey Shine
TTITLE16=Double O and His Demingos - The Crawl
TTITLE17=Billy Joe Young - The Push
TTITLE18=Kent and the Candidates - The Neck
TTITLE19=Lloyd Hendricks - The Sno-Cone
TTITLE20=Robert Parker - The Hiccup
TTITLE21=The Sister and Brothers - The Jed Clampett (pt. 1)
TTITLE22=The Odd Squad and Soulistics - The Row
TTITLE23=The MIAs - The Bullet
TTITLE24=Ellen Jackson and The Big Star Band - Getto Boogie
TTITLE25=Lil' Willie and The Rockin' Cavaliers - Crazy Stomp
TTITLE26=Top Hat and Little Jeff - Mississippi Bump
TTITLE27=The Intimates - Doing The Orbit
EXTD=Mr. Finewine - 2004 WFMU Premium
EXTT0=
EXTT1=
EXTT2=
EXTT3=
EXTT4=
EXTT5=
EXTT6=
EXTT7=
EXTT8=
EXTT9=
EXTT10=
EXTT11=
EXTT12=
EXTT13=
EXTT14=
EXTT15=
EXTT16=
EXTT17=
EXTT18=
EXTT19=
EXTT20=
EXTT21=
EXTT22=
EXTT23=
EXTT24=
EXTT25=
EXTT26=
EXTT27=
PLAYORDER=
